<svg xmlns="http://www.w3.org/2000/svg" width="160" height="128" viewBox="0 0 160 128">
  <!-- Directional survivor: the rifle points along local +X for stable sprite-only aiming. -->
  <ellipse cx="79" cy="108" rx="53" ry="12" fill="#03070c" fill-opacity=".72"/>
  <path d="M54 78 42 103l16 6 13-25M82 80l10 25 16-6-11-28" fill="#172c40" stroke="#07111c" stroke-width="7" stroke-linejoin="round"/>
  <path d="M47 61 34 77l17 10 14-17M94 61l18 6-7 17-20-8" fill="#28516c" stroke="#07111c" stroke-width="7" stroke-linejoin="round"/>
  <path d="M48 48Q60 38 78 39Q96 41 105 55L98 85Q76 98 53 85Z" fill="#1d3e59" stroke="#07111c" stroke-width="7"/>
  <path d="M50 48Q57 25 78 21Q100 26 105 48L95 66Q76 76 58 65Z" fill="#354c66" stroke="#081522" stroke-width="6"/>
  <path d="M58 42Q65 27 79 27Q94 29 99 42L91 47H65Z" fill="#afcbd7" stroke="#152b3d" stroke-width="4"/>
  <path d="M58 46H99L94 59H63Z" fill="#071420" stroke="#65d8ff" stroke-width="3"/>
  <path d="M67 52H88" stroke="#d7fbff" stroke-width="3" stroke-linecap="round"/>
  <path d="M55 66H99L101 81 78 91 53 82Z" fill="#2c6681" stroke="#07111c" stroke-width="5"/>
  <path d="M61 73H95M78 67V89" stroke="#8fe8ff" stroke-width="3" opacity=".55"/>
  <path d="M94 60 111 51l8 11-19 15" fill="#13283b" stroke="#07111c" stroke-width="5"/>
  <path d="M105 51H143L151 57 143 63H104Z" fill="#243746" stroke="#07111c" stroke-width="5" stroke-linejoin="round"/>
  <path d="M123 48V66M136 52H147" stroke="#77ddff" stroke-width="3" stroke-linecap="round"/>
  <path d="M145 55H157" stroke="#f1bf69" stroke-width="5" stroke-linecap="round"/>
  <circle cx="78" cy="66" r="5" fill="#66e2ff" stroke="#0c3045" stroke-width="3"/>
  <path d="M51 88 43 95M97 88l9 7" stroke="#e46d58" stroke-width="4" stroke-linecap="round"/>
</svg>
