<svg xmlns="http://www.w3.org/2000/svg" width="128" height="128" viewBox="0 0 128 128">
  <ellipse cx="61" cy="110" rx="42" ry="11" fill="#02070b" fill-opacity=".76"/>
  <path d="M37 75 27 103l14 7 14-27M73 75l17 27-14 8-17-28" fill="#102d38" stroke="#06131a" stroke-width="6" stroke-linejoin="round"/>
  <path d="M33 48 18 59l12 19 18-11M79 47l20-15 12 13-27 29" fill="#1d6570" stroke="#06131a" stroke-width="6" stroke-linejoin="round"/>
  <path d="M31 49Q39 38 59 37Q78 39 86 52L81 86Q62 101 39 87Z" fill="#174555" stroke="#06131a" stroke-width="7"/>
  <path d="M35 47Q37 24 57 15Q79 23 83 47L74 63Q58 72 43 62Z" fill="#4b8a8e" stroke="#07171e" stroke-width="6"/>
  <path d="M42 38 45 25l11-9 12 8 8 14-9-5-7 8-8-8z" fill="#b9d3c4" stroke="#163239" stroke-width="4"/>
  <path d="M42 43h34l-4 15H46Z" fill="#071820" stroke="#79ffe0" stroke-width="3"/>
  <path d="M49 49h21" stroke="#dbfff0" stroke-width="3" stroke-linecap="round"/>
  <path d="M42 68h35l4 17-20 10-22-10z" fill="#286879" stroke="#06131a" stroke-width="5"/>
  <path d="M43 75h32M57 68v25" stroke="#70d9c3" stroke-width="3" opacity=".55"/>
  <path d="M77 65 95 51l10 11-23 20" fill="#091d26" stroke="#061117" stroke-width="5"/>
  <path d="M95 55 120 37" stroke="#e5ad5a" stroke-width="8" stroke-linecap="round"/>
  <path d="M113 42 123 35" stroke="#d7e8da" stroke-width="3" stroke-linecap="round"/>
  <circle cx="63" cy="67" r="4" fill="#75ffd7"/>
  <path d="M34 93 26 99M80 92l12 7" stroke="#e36f53" stroke-width="4" stroke-linecap="round"/>
</svg>
