<svg xmlns="http://www.w3.org/2000/svg" width="96" height="96" viewBox="0 0 96 96">
  <!-- Lean top-down silhouette for the fast infected. -->
  <ellipse cx="48" cy="77" rx="23" ry="8" fill="#101719" opacity=".65"/>
  <path d="M33 45 L12 51 L17 60 L38 56 M63 45 L84 51 L79 60 L58 56" fill="#4e7a54" stroke="#14221f" stroke-width="4" stroke-linejoin="round"/>
  <path d="M34 42 Q36 27 48 24 Q60 27 62 42 L58 68 Q48 74 38 68Z" fill="#315743" stroke="#14221f" stroke-width="4"/>
  <path d="M37 40 Q37 24 48 18 Q59 24 59 40 L55 55 Q48 61 41 55Z" fill="#739b60" stroke="#14221f" stroke-width="3"/>
  <path d="M38 30 Q42 19 49 19 L58 29 L53 27 L48 34 L44 27Z" fill="#a75b50"/>
  <circle cx="43" cy="40" r="3" fill="#eef18b" stroke="#14221f" stroke-width="2"/><circle cx="54" cy="40" r="3" fill="#eef18b" stroke="#14221f" stroke-width="2"/>
  <circle cx="43" cy="40" r="1.2" fill="#38282a"/><circle cx="54" cy="40" r="1.2" fill="#38282a"/>
  <path d="M41 53 Q48 57 55 52" fill="none" stroke="#281b1e" stroke-width="3" stroke-linecap="round"/>
  <path d="M36 57 L29 64 M60 57 L67 64" stroke="#c8403f" stroke-width="3" stroke-linecap="round"/>
</svg>
