<svg xmlns="http://www.w3.org/2000/svg" width="128" height="128" viewBox="0 0 128 128">
  <ellipse cx="64" cy="108" rx="49" ry="15" fill="#050d0e" opacity=".85"/>
  <path d="M37 56L6 72L19 90L50 72M91 56L122 72L109 90L78 72" fill="#536d4b" stroke="#0b1917" stroke-width="8"/>
  <path d="M23 49Q28 23 64 18Q100 23 105 49L92 92Q64 108 36 92Z" fill="#304b3b" stroke="#091715" stroke-width="8"/>
  <path d="M33 45Q34 20 64 9Q94 20 95 45L84 69Q64 84 44 69Z" fill="#7d9560" stroke="#10231d" stroke-width="6"/>
  <path d="M32 32Q42 9 64 9Q86 10 96 32L82 25L72 38L63 21L51 38L42 25Z" fill="#a35c50" stroke="#14221f" stroke-width="5"/>
  <path d="M40 51Q64 39 88 51" fill="none" stroke="#d9dc73" stroke-width="8" stroke-linecap="round"/>
  <circle cx="47" cy="51" r="5" fill="#282324"/><circle cx="81" cy="51" r="5" fill="#282324"/>
  <path d="M41 73L57 87M87 73L71 87" stroke="#c63f3d" stroke-width="7" stroke-linecap="round"/>
</svg>
